<?xml version="1.0" encoding="UTF-8"?>
<svg width="154px" height="154px" viewBox="0 0 154 154" version="1.1" xmlns="http://www.w3.org/2000/svg" xmlns:xlink="http://www.w3.org/1999/xlink">
    <!-- Generator: Sketch 47.1 (45422) - http://www.bohemiancoding.com/sketch -->
    <title>address-icon</title>
    <desc>Created with Sketch.</desc>
    <defs>
        <polygon id="path-1" points="29.574467 0.283837273 0 0.283837273 0 76.65 29.574467 76.65 59.148934 76.65 59.148934 0.283837273"></polygon>
        <polygon id="path-3" points="9.72591746 0.254482424 9.72591746 9.53543697 0.0036615873 9.53543697 0.0036615873 0.254482424 9.72591746 0.254482424"></polygon>
        <polygon id="path-5" points="0 75.4333333 73 75.4333333 73 0 0 0"></polygon>
    </defs>
    <g id="Page-1-Copy" stroke="none" stroke-width="1" fill="none" fill-rule="evenodd">
        <g id="04-Desktop" transform="translate(-492.000000, -243.000000)">
            <g id="Group" transform="translate(0.000000, 120.000000)">
                <g id="Group-7" transform="translate(118.000000, 125.000000)">
                    <g id="Group-5">
                        <g id="Group-2-Copy-4" transform="translate(318.000000, 0.000000)">
                            <g id="address-icon" transform="translate(58.000000, 0.000000)">
                                <circle id="Oval" fill="#CAE4DB" cx="75" cy="75" r="65"></circle>
                                <circle id="Oval" stroke="#7D9E94" stroke-width="3" cx="75" cy="75" r="75"></circle>
                                <g id="Page-1" transform="translate(41.000000, 36.000000)">
                                    <g id="Group-3">
                                        <mask id="mask-2" fill="white">
                                            <use xlink:href="#path-1"></use>
                                        </mask>
                                        <g id="Clip-2"></g>
                                        <path d="M43.2932478,76.65 L0.703946089,76.65 C0.315264199,76.65 -0.000187769029,76.3378255 -0.000187769029,75.9531818 L-0.000187769029,0.980655455 C-0.000187769029,0.596011818 0.315264199,0.283837273 0.703946089,0.283837273 L58.4448002,0.283837273 C58.833482,0.283837273 59.148934,0.596011818 59.148934,0.980655455 L59.148934,36.2373327 C59.148934,36.6219764 58.833482,36.9341509 58.4448002,36.9341509 C58.0561183,36.9341509 57.7406663,36.6219764 57.7406663,36.2373327 L57.7406663,1.67747364 L1.40807995,1.67747364 L1.40807995,75.2563636 L43.2932478,75.2563636 C43.6819297,75.2563636 43.9973817,75.5685382 43.9973817,75.9531818 C43.9973817,76.3378255 43.6819297,76.65 43.2932478,76.65" id="Fill-1" fill="#003041" mask="url(#mask-2)"></path>
                                    </g>
                                    <path d="M55.9666667,45.1649035 C49.3400604,45.1649035 43.9482368,50.5567271 43.9482368,57.1833333 C43.9482368,63.8099396 49.3400604,69.2017632 55.9666667,69.2017632 C62.5932729,69.2017632 67.9850965,63.8099396 67.9850965,57.1833333 C67.9850965,50.5567271 62.5932729,45.1649035 55.9666667,45.1649035 M55.9666667,70.5666667 C48.5870887,70.5666667 42.5833333,64.5629113 42.5833333,57.1833333 C42.5833333,49.8037553 48.5870887,43.8 55.9666667,43.8 C63.3462447,43.8 69.35,49.8037553 69.35,57.1833333 C69.35,64.5629113 63.3462447,70.5666667 55.9666667,70.5666667" id="Fill-4" fill="#003041"></path>
                                    <g id="Group-8" transform="translate(63.266667, 65.700000)">
                                        <mask id="mask-4" fill="white">
                                            <use xlink:href="#path-3"></use>
                                        </mask>
                                        <g id="Clip-7"></g>
                                        <path d="M9.03086476,9.53543697 C8.85288381,9.53543697 8.67490286,9.47084303 8.53909968,9.34121273 L0.207366349,1.3873097 C-0.06424,1.12804909 -0.06424,0.708188485 0.207366349,0.448927879 C0.478972698,0.189667273 0.918826667,0.189667273 1.19043302,0.448927879 L9.52262984,8.40238848 C9.7937727,8.66164909 9.7937727,9.08195212 9.52262984,9.34121273 C9.38682667,9.47084303 9.20884571,9.53543697 9.03086476,9.53543697" id="Fill-6" fill="#003041" mask="url(#mask-4)"></path>
                                    </g>
                                    <path d="M10.3416667,75.4333333 C10.0058667,75.4333333 9.73333333,75.1249721 9.73333333,74.7450269 L9.73333333,0.688306395 C9.73333333,0.308361265 10.0058667,0 10.3416667,0 C10.6774667,0 10.95,0.308361265 10.95,0.688306395 L10.95,74.7450269 C10.95,75.1249721 10.6774667,75.4333333 10.3416667,75.4333333" id="Fill-9" fill="#003041"></path>
                                    <mask id="mask-6" fill="white">
                                        <use xlink:href="#path-5"></use>
                                    </mask>
                                    <g id="Clip-12"></g>
                                    <path d="M20.8340066,29.003112 L47.2993267,29.003112 L47.2993267,14.7973592 L20.8340066,14.7973592 L20.8340066,29.003112 Z M47.9829967,30.4166667 L20.1503366,30.4166667 C19.7729508,30.4166667 19.4666667,30.1000304 19.4666667,29.7098893 L19.4666667,14.0901107 C19.4666667,13.6999696 19.7729508,13.3833333 20.1503366,13.3833333 L47.9829967,13.3833333 C48.3608383,13.3833333 48.6666667,13.6999696 48.6666667,14.0901107 L48.6666667,29.7098893 C48.6666667,30.1000304 48.3608383,30.4166667 47.9829967,30.4166667 L47.9829967,30.4166667 Z" id="Fill-11" fill="#003041" mask="url(#mask-6)"></path>
                                    <path d="M43.0904906,21.9 L26.2595094,21.9 C25.8678602,21.9 25.55,21.6274667 25.55,21.2916667 C25.55,20.9558667 25.8678602,20.6833333 26.2595094,20.6833333 L43.0904906,20.6833333 C43.4821398,20.6833333 43.8,20.9558667 43.8,21.2916667 C43.8,21.6274667 43.4821398,21.9 43.0904906,21.9" id="Fill-13" fill="#003041" mask="url(#mask-6)"></path>
                                </g>
                            </g>
                        </g>
                    </g>
                </g>
            </g>
        </g>
    </g>
</svg>