<?xml version="1.0" encoding="UTF-8"?>
<svg width="418px" height="418px" viewBox="0 0 418 418" version="1.1" xmlns="http://www.w3.org/2000/svg" xmlns:xlink="http://www.w3.org/1999/xlink">
    <!-- Generator: Sketch 47.1 (45422) - http://www.bohemiancoding.com/sketch -->
    <title>camera</title>
    <desc>Created with Sketch.</desc>
    <defs>
        <polygon id="path-1" points="0 215.699467 259.72336 215.699467 259.72336 0 0 0"></polygon>
    </defs>
    <g id="Page-1-Copy" stroke="none" stroke-width="1" fill="none" fill-rule="evenodd">
        <g id="01-Desktop" transform="translate(-511.000000, -284.000000)">
            <g id="Group-5" transform="translate(491.000000, 190.000000)">
                <g id="camera" transform="translate(24.000000, 98.000000)">
                    <circle id="Oval" fill="#C6E4DB" cx="205" cy="205" r="195"></circle>
                    <g id="Page-1" transform="translate(75.000000, 97.000000)">
                        <path d="M135.757925,35.594624 C123.978192,35.594624 114.394939,45.1778773 114.394939,56.9576107 C114.394939,68.737344 123.978192,78.3205973 135.757925,78.3205973 C147.537659,78.3205973 157.120912,68.737344 157.120912,56.9576107 C157.120912,45.1778773 147.537659,35.594624 135.757925,35.594624 Z M135.757925,79.707264 C123.213445,79.707264 113.007579,69.5020907 113.007579,56.9576107 C113.007579,44.413824 123.213445,34.2079573 135.757925,34.2079573 C148.302405,34.2079573 158.507579,44.413824 158.507579,56.9576107 C158.507579,69.5020907 148.302405,79.707264 135.757925,79.707264 Z" id="Fill-1" fill="#003041"></path>
                        <path d="M135.757925,12.701104 C111.354672,12.701104 91.501072,32.554704 91.501072,56.9579573 C91.501072,81.3605173 111.354672,101.214117 135.757925,101.214117 C160.161179,101.214117 180.014085,81.3605173 180.014085,56.9579573 C180.014085,32.554704 160.161179,12.701104 135.757925,12.701104 M135.757925,102.600784 C110.589925,102.600784 90.1144053,82.1259573 90.1144053,56.9579573 C90.1144053,31.7899573 110.589925,11.3144373 135.757925,11.3144373 C160.925232,11.3144373 181.400752,31.7899573 181.400752,56.9579573 C181.400752,82.1259573 160.925232,102.600784 135.757925,102.600784" id="Fill-3" fill="#003041"></path>
                        <path d="M31.119088,103.617141 C24.332048,103.617141 18.8103413,109.139541 18.8103413,115.926581 C18.8103413,122.713621 24.332048,128.236021 31.119088,128.236021 C37.906128,128.236021 43.4278347,122.713621 43.4278347,115.926581 C43.4278347,109.139541 37.906128,103.617141 31.119088,103.617141 M31.119088,129.622688 C23.5673013,129.622688 17.4236747,123.478368 17.4236747,115.926581 C17.4236747,108.374101 23.5673013,102.230475 31.119088,102.230475 C38.6708747,102.230475 44.8145013,108.374101 44.8145013,115.926581 C44.8145013,123.478368 38.6708747,129.622688 31.119088,129.622688" id="Fill-5" fill="#003041"></path>
                        <path d="M215.043712,69.0479573 C212.705099,69.0479573 210.802592,70.950464 210.802592,73.2890773 C210.802592,75.6276907 212.705099,77.5301973 215.043712,77.5301973 C217.382325,77.5301973 219.284832,75.6276907 219.284832,73.2890773 C219.284832,70.950464 217.382325,69.0479573 215.043712,69.0479573 M215.043712,78.916864 C211.940352,78.916864 209.415925,76.3924373 209.415925,73.2890773 C209.415925,70.1864107 211.940352,67.6612907 215.043712,67.6612907 C218.147072,67.6612907 220.671499,70.1864107 220.671499,73.2890773 C220.671499,76.3924373 218.147072,78.916864 215.043712,78.916864" id="Fill-7" fill="#003041"></path>
                        <path d="M22.2767307,12.701104 C20.3652107,12.701104 18.810064,14.2562507 18.810064,16.1677707 L18.810064,85.3132107 C18.810064,87.2247307 20.3652107,88.7798773 22.2767307,88.7798773 L58.639984,88.7798773 C60.551504,88.7798773 62.1066507,87.2247307 62.1066507,85.3132107 L62.1066507,16.1677707 C62.1066507,14.2562507 60.551504,12.701104 58.639984,12.701104 L22.2767307,12.701104 Z M58.639984,90.166544 L22.2767307,90.166544 C19.600464,90.166544 17.4233973,87.9894773 17.4233973,85.3132107 L17.4233973,16.1677707 C17.4233973,13.4921973 19.600464,11.3144373 22.2767307,11.3144373 L58.639984,11.3144373 C61.3162507,11.3144373 63.4933173,13.4921973 63.4933173,16.1677707 L63.4933173,85.3132107 C63.4933173,87.9894773 61.3162507,90.166544 58.639984,90.166544 L58.639984,90.166544 Z" id="Fill-9" fill="#003041"></path>
                        <mask id="mask-2" fill="white">
                            <use xlink:href="#path-1"></use>
                        </mask>
                        <g id="Clip-12"></g>
                        <polygon id="Fill-11" fill="#003041" mask="url(#mask-2)" points="21.54464 89.47328 22.9313067 89.47328 22.9313067 12.00784 21.54464 12.00784"></polygon>
                        <polygon id="Fill-13" fill="#003041" mask="url(#mask-2)" points="57.9848533 89.47328 59.37152 89.47328 59.37152 12.00784 57.9848533 12.00784"></polygon>
                        <path d="M195.012549,13.1729867 C193.101029,13.1729867 191.545883,14.7281333 191.545883,16.6396533 L191.545883,56.70184 C191.545883,58.61336 193.101029,60.1685067 195.012549,60.1685067 L235.074736,60.1685067 C236.986256,60.1685067 238.541403,58.61336 238.541403,56.70184 L238.541403,16.6396533 C238.541403,14.7281333 236.986256,13.1729867 235.074736,13.1729867 L195.012549,13.1729867 Z M235.074736,61.5551733 L195.012549,61.5551733 C192.336283,61.5551733 190.159216,59.3781067 190.159216,56.70184 L190.159216,16.6396533 C190.159216,13.96408 192.336283,11.78632 195.012549,11.78632 L235.074736,11.78632 C237.750309,11.78632 239.928069,13.96408 239.928069,16.6396533 L239.928069,56.70184 C239.928069,59.3781067 237.750309,61.5551733 235.074736,61.5551733 L235.074736,61.5551733 Z" id="Fill-14" fill="#003041" mask="url(#mask-2)"></path>
                        <path d="M207.010128,25.1702187 C205.098608,25.1702187 203.543461,26.7253653 203.543461,28.6368853 L203.543461,44.7048853 C203.543461,46.6164053 205.098608,48.171552 207.010128,48.171552 L223.077435,48.171552 C224.988955,48.171552 226.544101,46.6164053 226.544101,44.7048853 L226.544101,28.6368853 C226.544101,26.7253653 224.988955,25.1702187 223.077435,25.1702187 L207.010128,25.1702187 Z M223.077435,49.5582187 L207.010128,49.5582187 C204.333861,49.5582187 202.156795,47.3804587 202.156795,44.7048853 L202.156795,28.6368853 C202.156795,25.961312 204.333861,23.783552 207.010128,23.783552 L223.077435,23.783552 C225.753008,23.783552 227.930768,25.961312 227.930768,28.6368853 L227.930768,44.7048853 C227.930768,47.3804587 225.753008,49.5582187 223.077435,49.5582187 L223.077435,49.5582187 Z" id="Fill-15" fill="#003041" mask="url(#mask-2)"></path>
                        <path d="M207.010128,68.824496 C205.098608,68.824496 203.543461,70.3796427 203.543461,72.2911627 L203.543461,74.286576 C203.543461,76.198096 205.098608,77.7532427 207.010128,77.7532427 L223.077435,77.7532427 C224.988955,77.7532427 226.544101,76.198096 226.544101,74.286576 L226.544101,72.2911627 C226.544101,70.3796427 224.988955,68.824496 223.077435,68.824496 L207.010128,68.824496 Z M223.077435,79.1399093 L207.010128,79.1399093 C204.333861,79.1399093 202.156795,76.9621493 202.156795,74.286576 L202.156795,72.2911627 C202.156795,69.6155893 204.333861,67.4378293 207.010128,67.4378293 L223.077435,67.4378293 C225.753008,67.4378293 227.930768,69.6155893 227.930768,72.2911627 L227.930768,74.286576 C227.930768,76.9621493 225.753008,79.1399093 223.077435,79.1399093 L223.077435,79.1399093 Z" id="Fill-16" fill="#003041" mask="url(#mask-2)"></path>
                        <path d="M77.648272,16.402048 C74.6433653,16.402048 72.198672,18.846048 72.198672,21.8509547 C72.198672,24.8558613 74.6433653,27.3005547 77.648272,27.3005547 C80.6531787,27.3005547 83.097872,24.8558613 83.097872,21.8509547 C83.097872,18.846048 80.6531787,16.402048 77.648272,16.402048 M77.648272,28.6872213 C73.8786187,28.6872213 70.8120053,25.620608 70.8120053,21.8509547 C70.8120053,18.0819947 73.8786187,15.0153813 77.648272,15.0153813 C81.4179253,15.0153813 84.4845387,18.0819947 84.4845387,21.8509547 C84.4845387,25.620608 81.4179253,28.6872213 77.648272,28.6872213" id="Fill-17" fill="#003041" mask="url(#mask-2)"></path>
                        <path d="M181.400752,97.1516693 C178.395845,97.1516693 175.951152,99.5956693 175.951152,102.600576 C175.951152,105.605483 178.395845,108.050176 181.400752,108.050176 C184.405659,108.050176 186.850352,105.605483 186.850352,102.600576 C186.850352,99.5956693 184.405659,97.1516693 181.400752,97.1516693 M181.400752,109.436843 C177.631099,109.436843 174.564485,106.370229 174.564485,102.600576 C174.564485,98.831616 177.631099,95.7650027 181.400752,95.7650027 C185.170405,95.7650027 188.237019,98.831616 188.237019,102.600576 C188.237019,106.370229 185.170405,109.436843 181.400752,109.436843" id="Fill-18" fill="#003041" mask="url(#mask-2)"></path>
                        <path d="M77.648272,37.202048 C74.6433653,37.202048 72.198672,39.646048 72.198672,42.6509547 C72.198672,45.6558613 74.6433653,48.1005547 77.648272,48.1005547 C80.6531787,48.1005547 83.097872,45.6558613 83.097872,42.6509547 C83.097872,39.646048 80.6531787,37.202048 77.648272,37.202048 M77.648272,49.4872213 C73.8786187,49.4872213 70.8120053,46.420608 70.8120053,42.6509547 C70.8120053,38.8819947 73.8786187,35.8153813 77.648272,35.8153813 C81.4179253,35.8153813 84.4845387,38.8819947 84.4845387,42.6509547 C84.4845387,46.420608 81.4179253,49.4872213 77.648272,49.4872213" id="Fill-19" fill="#003041" mask="url(#mask-2)"></path>
                        <path d="M251.021195,137.198395 L249.634528,137.198395 L249.634528,14.5595147 C249.634528,7.29615467 243.725248,1.38618133 236.461195,1.38618133 L23.261888,1.38618133 C15.998528,1.38618133 10.0885547,7.29615467 10.0885547,14.5595147 L10.0885547,137.198395 L8.701888,137.198395 L8.701888,14.5595147 C8.701888,6.531408 15.2337813,-0.000485333333 23.261888,-0.000485333333 L236.461195,-0.000485333333 C244.489301,-0.000485333333 251.021195,6.531408 251.021195,14.5595147 L251.021195,137.198395 Z" id="Fill-20" fill="#003041" mask="url(#mask-2)"></path>
                        <path d="M7.62666667,137.891728 C4.18634667,137.891728 1.38666667,140.690715 1.38666667,144.131728 L1.38666667,208.073008 C1.38666667,211.514021 4.18634667,214.313008 7.62666667,214.313008 L252.096693,214.313008 C255.537013,214.313008 258.336693,211.514021 258.336693,208.073008 L258.336693,144.131728 C258.336693,140.690715 255.537013,137.891728 252.096693,137.891728 L7.62666667,137.891728 Z M252.096693,215.699675 L7.62666667,215.699675 C3.4216,215.699675 0,212.278075 0,208.073008 L0,144.131728 C0,139.926661 3.4216,136.505061 7.62666667,136.505061 L252.096693,136.505061 C256.30176,136.505061 259.72336,139.926661 259.72336,144.131728 L259.72336,208.073008 C259.72336,212.278075 256.30176,215.699675 252.096693,215.699675 L252.096693,215.699675 Z" id="Fill-21" fill="#003041" mask="url(#mask-2)"></path>
                        <path d="M29.8461973,174.514496 C26.4058773,174.514496 23.6061973,177.313483 23.6061973,180.754496 L23.6061973,185.316629 C23.6061973,188.757643 26.4058773,191.556629 29.8461973,191.556629 L229.877024,191.556629 C233.318037,191.556629 236.117024,188.757643 236.117024,185.316629 L236.117024,180.754496 C236.117024,177.313483 233.318037,174.514496 229.877024,174.514496 L29.8461973,174.514496 Z M229.877024,192.943296 L29.8461973,192.943296 C25.6411307,192.943296 22.2195307,189.522389 22.2195307,185.316629 L22.2195307,180.754496 C22.2195307,176.549429 25.6411307,173.127829 29.8461973,173.127829 L229.877024,173.127829 C234.082784,173.127829 237.503691,176.549429 237.503691,180.754496 L237.503691,185.316629 C237.503691,189.522389 234.082784,192.943296 229.877024,192.943296 L229.877024,192.943296 Z" id="Fill-22" fill="#003041" mask="url(#mask-2)"></path>
                        <polygon id="Fill-23" fill="#003041" mask="url(#mask-2)" points="22.91328 186.01024 236.810773 186.01024 236.810773 184.623573 22.91328 184.623573"></polygon>
                        <path d="M129.861541,151.981856 C127.522928,151.981856 125.620421,153.884363 125.620421,156.222976 C125.620421,158.561589 127.522928,160.464096 129.861541,160.464096 C132.200155,160.464096 134.102661,158.561589 134.102661,156.222976 C134.102661,153.884363 132.200155,151.981856 129.861541,151.981856 M129.861541,161.850763 C126.758181,161.850763 124.233755,159.326336 124.233755,156.222976 C124.233755,153.120309 126.758181,150.595189 129.861541,150.595189 C132.964901,150.595189 135.489328,153.120309 135.489328,156.222976 C135.489328,159.326336 132.964901,161.850763 129.861541,161.850763" id="Fill-24" fill="#003041" mask="url(#mask-2)"></path>
                        <path d="M101.028304,151.758395 C99.116784,151.758395 97.560944,153.313541 97.560944,155.225061 L97.560944,157.220475 C97.560944,159.131995 99.116784,160.687141 101.028304,160.687141 L158.695611,160.687141 C160.607131,160.687141 162.162277,159.131995 162.162277,157.220475 L162.162277,155.225061 C162.162277,153.313541 160.607131,151.758395 158.695611,151.758395 L101.028304,151.758395 Z M158.695611,162.073808 L101.028304,162.073808 C98.3520373,162.073808 96.1742773,159.896048 96.1742773,157.220475 L96.1742773,155.225061 C96.1742773,152.549488 98.3520373,150.371728 101.028304,150.371728 L158.695611,150.371728 C161.371184,150.371728 163.548944,152.549488 163.548944,155.225061 L163.548944,157.220475 C163.548944,159.896048 161.371184,162.073808 158.695611,162.073808 L158.695611,162.073808 Z" id="Fill-25" fill="#003041" mask="url(#mask-2)"></path>
                    </g>
                    <circle id="Oval" stroke="#7D9E94" stroke-width="4" cx="205" cy="205" r="207"></circle>
                </g>
            </g>
        </g>
    </g>
</svg>