<svg width="48" height="48" xmlns="http://www.w3.org/2000/svg">

 <g>
  <title>background</title>
  <rect fill="none" id="canvas_background" height="402" width="582" y="-1" x="-1"/>
 </g>
 <g>
  <title>Layer 1</title>
  <path stroke="#ffffff" fill="#ffffff" id="svg_2" d="m24,46.057966c-12.1,0 -22,-9.9 -22,-22s9.9,-22 22,-22s22,9.9 22,22s-9.9,22 -22,22zm0,-42c-11,0 -20,9 -20,20c0,11 9,20 20,20c11,0 20,-9 20,-20c0,-11 -9,-20 -20,-20z"/>
  <polygon fill="#ffffff" stroke="#ffffff" id="svg_4" points="20,34.1 11.3,25.4 12.7,23.9 20,31.2 35.3,15.9 36.7,17.4  "/>
 </g>
</svg>