<?xml version="1.0" encoding="UTF-8"?>
<svg width="154px" height="154px" viewBox="0 0 154 154" version="1.1" xmlns="http://www.w3.org/2000/svg" xmlns:xlink="http://www.w3.org/1999/xlink">
    <!-- Generator: Sketch 47.1 (45422) - http://www.bohemiancoding.com/sketch -->
    <title>note-icon</title>
    <desc>Created with Sketch.</desc>
    <defs>
        <polygon id="path-1" points="58.5401806 0.283283951 0 0.283283951 0 76.9998099 58.5401806 76.9998099"></polygon>
        <polygon id="path-3" points="33.8884225 33.5952111 33.8884225 0.21335 0.0365859155 0.21335 0.0365859155 33.5952111"></polygon>
    </defs>
    <g id="Page-1-Copy" stroke="none" stroke-width="1" fill="none" fill-rule="evenodd">
        <g id="04-Desktop" transform="translate(-809.000000, -243.000000)">
            <g id="Group" transform="translate(0.000000, 120.000000)">
                <g id="Group-7" transform="translate(118.000000, 125.000000)">
                    <g id="Group-5">
                        <g id="Group-2-Copy-5" transform="translate(635.000000, 0.000000)">
                            <g id="note-icon" transform="translate(58.000000, 0.000000)">
                                <circle id="Oval" fill="#CAE4DB" cx="75" cy="75" r="65"></circle>
                                <g id="Group-3" transform="translate(49.000000, 37.000000)">
                                    <mask id="mask-2" fill="white">
                                        <use xlink:href="#path-1"></use>
                                    </mask>
                                    <g id="Clip-2"></g>
                                    <path d="M33.5317935,49.084458 L55.7257855,60.672958 L3.8881,74.6902852 L33.5317935,49.084458 Z M57.826471,29.6243716 C57.4320274,29.6243716 57.1127613,29.9433037 57.1127613,30.3373346 L57.1127613,59.788884 L33.7630355,47.5962667 C33.5032452,47.4598531 33.1877855,47.4969272 32.9655839,47.6884765 L1.42722903,74.930316 L1.42722903,1.70901975 L57.1127613,1.70901975 L57.1127613,10.4789395 C57.1127613,10.8724951 57.4320274,11.1919025 57.826471,11.1919025 C58.2204387,11.1919025 58.5401806,10.8724951 58.5401806,10.4789395 L58.5401806,0.99605679 C58.5401806,0.602501235 58.2204387,0.283093827 57.826471,0.283093827 L0.713519355,0.283093827 C0.319551613,0.283093827 -0.000190322581,0.602501235 -0.000190322581,0.99605679 L-0.000190322581,76.2868469 C-0.000190322581,76.508816 0.103535484,76.7184272 0.280059677,76.8534148 C0.405672581,76.9494272 0.558406452,76.9998099 0.713519355,76.9998099 C0.748729032,76.9998099 0.782987097,76.9917296 0.817245161,76.9860259 C0.861019355,76.9945815 0.904317742,76.9998099 0.948567742,76.9998099 C1.10225323,76.9998099 1.25451129,76.9451494 1.38440645,76.844384 L58.0125113,61.5313654 C58.3236887,61.4472358 58.5401806,61.1653778 58.5401806,60.8431185 L58.5401806,30.3373346 C58.5401806,29.9433037 58.2204387,29.6243716 57.826471,29.6243716 L57.826471,29.6243716 Z" id="Fill-1" fill="#003041" mask="url(#mask-2)"></path>
                                    <g id="Page-1" mask="url(#mask-2)">
                                        <g transform="translate(10.000000, 7.000000)">
                                            <path d="M0.710216064,37 L29.2897839,37 C29.6818232,37 30,36.776 30,36.5 C30,36.224 29.6818232,36 29.2897839,36 L0.710216064,36 C0.318176796,36 0,36.224 0,36.5 C0,36.776 0.318176796,37 0.710216064,37" id="Fill-4" fill="#003041"></path>
                                            <path d="M0.710216064,15 L29.2897839,15 C29.6818232,15 30,14.776 30,14.5 C30,14.224 29.6818232,14 29.2897839,14 L0.710216064,14 C0.318176796,14 0,14.224 0,14.5 C0,14.776 0.318176796,15 0.710216064,15" id="Fill-6" fill="#003041"></path>
                                            <path d="M0.710216064,4 L29.2897839,4 C29.6818232,4 30,3.776 30,3.5 C30,3.224 29.6818232,3 29.2897839,3 L0.710216064,3 C0.318176796,3 0,3.224 0,3.5 C0,3.776 0.318176796,4 0.710216064,4" id="Fill-8" fill="#003041"></path>
                                            <path d="M0.726459261,26 L20.2735407,26 C20.6745463,26 21,25.776 21,25.5 C21,25.224 20.6745463,25 20.2735407,25 L0.726459261,25 C0.325453749,25 0,25.224 0,25.5 C0,25.776 0.325453749,26 0.726459261,26" id="Fill-10" fill="#003041"></path>
                                            <g id="Group-14" stroke-width="1" fill="none" transform="translate(26.000000, 0.000000)">
                                                <mask id="mask-4" fill="white">
                                                    <use xlink:href="#path-3"></use>
                                                </mask>
                                                <g id="Clip-13"></g>
                                                <path d="M31.8567549,5.47390556 L30.1126986,7.19421111 L26.8099099,3.93682222 L28.5539662,2.21746111 L31.8567549,5.47390556 Z M8.61081127,28.3969889 L5.30850141,25.1400722 L25.7942197,4.93840556 L29.0970085,8.19579444 L8.61081127,28.3969889 Z M4.01219155,30.4629611 L3.9987831,30.4686278 C3.97052958,30.42235 3.94850141,30.3727667 3.90827606,30.3331 L3.28813521,29.7211 C3.26610704,29.6993778 3.23737465,29.6904056 3.21390986,29.6724611 L4.56576901,26.4108222 L7.32216338,29.1294056 L4.01219155,30.4629611 Z M3.72965634,24.6834333 L1.88312113,29.1393222 L0.0365859155,33.5952111 L4.5552338,31.7743222 L9.07388169,29.9539056 L9.06909296,29.9487111 L33.8886141,5.47390556 L28.5539662,0.21335 L3.73444507,24.6881556 L3.72965634,24.6834333 Z" id="Fill-12" fill="#003041" mask="url(#mask-4)"></path>
                                            </g>
                                            <path d="M52.7919708,8.20803179 C52.5145985,7.93065607 52.0654069,7.93065607 51.7880347,8.20803179 L34.2080292,25.7882562 C33.9306569,26.065632 33.9306569,26.5148292 34.2080292,26.7922049 C34.3467153,26.9308927 34.5284746,27 34.7102339,27 C34.8919932,27 35.0732792,26.9308927 35.2119653,26.7922049 L52.7919708,9.21198042 C53.0693431,8.9346047 53.0693431,8.48540751 52.7919708,8.20803179" id="Fill-15" fill="#003041"></path>
                                        </g>
                                    </g>
                                </g>
                                <circle id="Oval-Copy" stroke="#7D9E94" stroke-width="3" cx="75" cy="75" r="75"></circle>
                            </g>
                        </g>
                    </g>
                </g>
            </g>
        </g>
    </g>
</svg>