<?xml version="1.0" encoding="UTF-8"?>
<svg width="418px" height="418px" viewBox="0 0 418 418" version="1.1" xmlns="http://www.w3.org/2000/svg" xmlns:xlink="http://www.w3.org/1999/xlink">
    <!-- Generator: Sketch 47.1 (45422) - http://www.bohemiancoding.com/sketch -->
    <title>polaroid-icon</title>
    <desc>Created with Sketch.</desc>
    <defs></defs>
    <g id="Page-1-Copy" stroke="none" stroke-width="1" fill="none" fill-rule="evenodd">
        <g id="05-Desktop" transform="translate(-511.000000, -284.000000)">
            <g id="polaroid-icon" transform="translate(515.000000, 288.000000)">
                <circle id="Oval" stroke="#7D9E94" stroke-width="4" cx="205" cy="205" r="207"></circle>
                <circle id="Oval" fill="#C6E4DB" cx="205" cy="205" r="195"></circle>
                <g id="Page-1" transform="translate(100.000000, 75.000000)" fill="#003041">
                    <path d="M14.6654064,196.334594 L196.334594,196.334594 L196.334594,14.6654064 L14.6654064,14.6654064 L14.6654064,196.334594 Z M197.167297,198 L13.8327032,198 C13.3722183,198 13,197.627782 13,197.167297 L13,13.8327032 C13,13.3722183 13.3722183,13 13.8327032,13 L197.167297,13 C197.626949,13 198,13.3722183 198,13.8327032 L198,197.167297 C198,197.627782 197.626949,198 197.167297,198 L197.167297,198 Z" id="Fill-1"></path>
                    <path d="M1.67171747,259.332103 L209.328283,259.332103 L209.328283,1.66789682 L1.67171747,1.66789682 L1.67171747,259.332103 Z M210.164141,261 L0.835858736,261 C0.373628855,261 0,260.627225 0,260.166052 L0,0.83394841 C0,0.373608888 0.373628855,0 0.835858736,0 L210.164141,0 C210.625535,0 211,0.373608888 211,0.83394841 L211,260.166052 C211,260.627225 210.625535,261 210.164141,261 L210.164141,261 Z" id="Fill-3"></path>
                    <path d="M67.5161647,130.306472 L144.471655,130.306472 L117.736015,95.1251193 L98.2698921,114.927543 C97.9577349,115.24508 97.4050085,115.24508 97.0928513,114.927543 L86.8707436,104.530128 L67.5161647,130.306472 Z M146.167293,132 L65.8330131,132 C65.5166938,132 65.2270119,131.817099 65.0863331,131.528352 C64.9456542,131.240453 64.978951,130.894973 65.1712398,130.63925 L86.1248959,102.732447 C86.2705693,102.538539 86.4919928,102.417451 86.7317295,102.401363 C86.9673042,102.389508 87.2053761,102.475031 87.3751896,102.647771 L97.6813717,113.131557 L117.228239,93.2469966 C117.397221,93.0751035 117.631963,92.9921206 117.869202,93.0005883 C118.108107,93.0166768 118.328698,93.1360705 118.475203,93.328286 L146.825737,130.635863 C147.020523,130.890739 147.054652,131.237066 146.914805,131.525812 C146.774959,131.816252 146.485277,132 146.167293,132 L146.167293,132 Z" id="Fill-4"></path>
                    <path d="M98.0004288,86.7152659 C95.6374812,86.7152659 93.7153885,88.6372213 93.7153885,91 C93.7153885,93.3627787 95.6374812,95.2847341 98.0004288,95.2847341 C100.362519,95.2847341 102.284612,93.3627787 102.284612,91 C102.284612,88.6372213 100.362519,86.7152659 98.0004288,86.7152659 M98.0004288,97 C94.6923022,97 92,94.3087479 92,91 C92,87.6921098 94.6923022,85 98.0004288,85 C101.308555,85 104,87.6921098 104,91 C104,94.3087479 101.308555,97 98.0004288,97" id="Fill-5"></path>
                </g>
            </g>
        </g>
    </g>
</svg>