<?xml version="1.0" encoding="UTF-8"?>
<svg width="102px" height="76px" viewBox="0 0 102 76" version="1.1" xmlns="http://www.w3.org/2000/svg" xmlns:xlink="http://www.w3.org/1999/xlink">
    <!-- Generator: Sketch 47.1 (45422) - http://www.bohemiancoding.com/sketch -->
    <title>postcard-logo</title>
    <desc>Created with Sketch.</desc>
    <defs></defs>
    <g id="Page-1-Copy" stroke="none" stroke-width="1" fill="none" fill-rule="evenodd">
        <g id="01-Desktop" transform="translate(-40.000000, -26.000000)">
            <g id="Page-1" transform="translate(40.000000, 26.000000)">
                <g id="postcard-logo">
                    <rect id="Rectangle-2" fill="#0D3041" x="0" y="1" width="101" height="60"></rect>
                    <polygon id="Fill-1" fill="#FFFFFF" points="76.5114167 24.980725 91.2 24.980725 91.2 10.2921417 76.5114167 10.2921417"></polygon>
                    <path d="M0,0.000158333333 L0,62.7830338 L18.6698862,62.7830338 L24.3300663,75.7468252 L24.3308579,75.7468252 L32.3168574,62.7830338 L101.487424,62.7830338 L101.487424,0.000158333333 L0,0.000158333333 Z M74.9249513,26.5626313 L92.7794549,26.5626313 L92.7794549,8.70891928 L74.9249513,8.70891928 L74.9249513,26.5626313 Z M50.1305297,52.4917974 L51.7145885,52.4917974 L51.7145885,10.2921864 L50.1305297,10.2921864 L50.1305297,52.4917974 Z M8.70796932,28.7095415 L41.0058275,28.7095415 L41.0058275,29.5011751 L41.1950279,30.2698513 L15.2650702,36.6258773 L41.0058275,36.6258773 L41.0058275,37.4175108 L41.1950279,38.186187 L15.2650702,44.542213 L41.0058275,44.542213 L41.0058275,46.1254802 L8.70796932,46.1254802 L8.70796932,45.3338466 L8.51876889,44.5643788 L34.4495182,38.2091444 L8.70796932,38.2091444 L8.70796932,37.4175108 L8.51876889,36.648043 L34.4495182,30.2928087 L8.70796932,30.2928087 L8.70796932,28.7095415 Z" id="Fill-2" fill="#FFFFFF"></path>
                </g>
            </g>
        </g>
    </g>
</svg>