<?xml version="1.0" encoding="UTF-8"?>
<svg width="154px" height="154px" viewBox="0 0 154 154" version="1.1" xmlns="http://www.w3.org/2000/svg" xmlns:xlink="http://www.w3.org/1999/xlink">
    <!-- Generator: Sketch 47.1 (45422) - http://www.bohemiancoding.com/sketch -->
    <title>send-icon</title>
    <desc>Created with Sketch.</desc>
    <defs>
        <polygon id="path-1" points="49.9097224 0.301236364 0.10046291 0.301236364 0.10046291 37.9017182 49.9097224 37.9017182 49.9097224 0.301236364"></polygon>
    </defs>
    <g id="Page-1-Copy" stroke="none" stroke-width="1" fill="none" fill-rule="evenodd">
        <g id="04-Desktop" transform="translate(-1119.000000, -243.000000)">
            <g id="Group" transform="translate(0.000000, 120.000000)">
                <g id="Group-7" transform="translate(118.000000, 125.000000)">
                    <g id="Group-5">
                        <g id="Group-2-Copy-6" transform="translate(953.000000, 0.000000)">
                            <g id="send-icon" transform="translate(50.000000, 0.000000)">
                                <circle id="Oval" fill="#CAE4DB" cx="75" cy="75" r="65"></circle>
                                <circle id="Oval-Copy-2" stroke="#7D9E94" stroke-width="3" cx="75" cy="75" r="75"></circle>
                                <g id="Page-1" transform="translate(31.000000, 43.000000)">
                                    <g id="Group-3" transform="translate(29.000000, 0.000000)">
                                        <mask id="mask-2" fill="white">
                                            <use xlink:href="#path-1"></use>
                                        </mask>
                                        <g id="Clip-2"></g>
                                        <path d="M2.40671233,14.5887182 L18.7978082,19.8655364 C18.9046575,19.8997364 18.9971233,19.9684818 19.0618493,20.0607182 L30.4666438,36.3893182 L48.3936986,1.64004545 L2.40671233,14.5887182 Z M30.5327397,37.9017182 C30.3666438,37.9017182 30.2094521,37.8205364 30.1125342,37.6823545 L18.3214384,20.7996455 L0.458082192,15.0492091 C0.241643836,14.9797727 0.0964383562,14.7752636 0.100547945,14.5462273 C0.104657534,14.3171909 0.25739726,14.1182091 0.475890411,14.0567182 L49.2580822,0.320754545 C49.4556849,0.263754545 49.6659589,0.332845455 49.7950685,0.493136364 C49.9238356,0.653772727 49.9460959,0.8759 49.8519178,1.05899091 L30.9885616,37.6229364 C30.9056849,37.7835727 30.7460959,37.8885909 30.5673288,37.9006818 C30.5553425,37.9013727 30.5440411,37.9017182 30.5327397,37.9017182 L30.5327397,37.9017182 Z" id="Fill-1" fill="#003041" mask="url(#mask-2)"></path>
                                    </g>
                                    <path d="M45.5249305,35 C45.4363985,35 45.3471666,34.9774075 45.2670328,34.9318695 C45.0840199,34.8273793 44.980091,34.6233409 45.0031863,34.4125954 L46.528527,20.4380842 C46.5460234,20.2774657 46.6352553,20.1341447 46.7706778,20.0480108 L78.1950041,0.0811958837 C78.4410042,-0.0741274529 78.7643386,4.13953194e-06 78.9193571,0.247109448 C79.0736758,0.494567764 78.9998408,0.821805793 78.7548905,0.977482137 L47.5443709,20.8080361 L46.1810474,33.2981504 L52.2204725,28.6402154 C52.4510757,28.4626526 52.7803589,28.5071315 52.9560233,28.7394105 C53.1320376,28.9716895 53.0882964,29.3038696 52.8580431,29.4814325 L45.8437159,34.8909207 C45.7502848,34.9632872 45.6376077,35 45.5249305,35" id="Fill-4" fill="#003041"></path>
                                    <path d="M17.542297,49 C17.3789882,49 17.2174858,48.9278065 17.1109015,48.7898209 C16.9295274,48.5554588 16.9754129,48.2208082 17.2135115,48.0422804 L29.1292787,39.1091362 C29.3673773,38.9306085 29.7077245,38.9757739 29.8890985,39.2104916 C30.0704726,39.4448537 30.0245871,39.7795043 29.7864885,39.9580321 L17.87036,48.8908207 C17.7724469,48.9644367 17.65683,49 17.542297,49" id="Fill-6" fill="#003041"></path>
                                    <path d="M33.5072086,37 C33.357864,37 33.2095331,36.9312987 33.1095195,36.7998854 C32.9358473,36.5708811 32.9726766,36.2386486 33.1919631,36.0572067 L39.1782476,31.1142361 C39.3985477,30.9327942 39.7164962,30.9719011 39.8905063,31.2002008 C40.0641785,31.4288528 40.0273492,31.7614376 39.8077248,31.9428795 L33.8217782,36.8858501 C33.7281845,36.963007 33.6173586,37 33.5072086,37" id="Fill-8" fill="#003041"></path>
                                    <path d="M9.52326513,38 C9.36779602,38 9.21372124,37.931617 9.11053995,37.8007223 C8.93310995,37.5751966 8.97354586,37.2491686 9.20117217,37.073376 L31.155433,20.1095605 C31.3834079,19.9334225 31.7114268,19.974176 31.8892054,20.1993564 C32.0669839,20.4248821 32.026548,20.75091 31.7985731,20.9263573 L9.84466092,37.8905181 C9.74879992,37.9640817 9.63550965,38 9.52326513,38" id="Fill-10" fill="#003041"></path>
                                    <path d="M0.507208562,45 C0.357863992,45 0.209533073,44.9313004 0.109519515,44.7998904 C-0.0641526766,44.5708917 -0.0273233596,44.2386675 0.191963124,44.0572301 L6.1782476,39.1143819 C6.39854774,38.9325922 6.71683413,38.9720504 6.89050632,39.2003445 C7.06417851,39.4289909 7.0273492,39.7615674 6.80772483,39.9430048 L0.821778232,44.885853 C0.728184463,44.9630079 0.617358629,45 0.507208562,45" id="Fill-12" fill="#003041"></path>
                                    <path d="M28.5232651,57 C28.367796,57 28.2137212,56.9316189 28.1105399,56.8007278 C27.9331099,56.5752082 27.9735459,56.2495345 28.2011722,56.0734013 L50.155433,39.109704 C50.3837564,38.9332255 50.7117754,38.9743233 50.8892054,39.1994974 C51.0669839,39.425017 51.026548,39.7506907 50.7985731,39.9264785 L28.8446609,56.8905211 C28.7487999,56.9640826 28.6355096,57 28.5232651,57" id="Fill-14" fill="#003041"></path>
                                    <path d="M19.5072086,64 C19.357864,64 19.2095331,63.9313044 19.1095195,63.7999021 C18.9358473,63.5709169 18.9726766,63.2387122 19.1919631,63.0572855 L25.1782476,58.1143752 C25.3985477,57.9325962 25.7168341,57.9720521 25.8905063,58.2003327 C26.0641785,58.429318 26.0273492,58.7615227 25.8077248,58.9429494 L19.8217782,63.8858597 C19.7281845,63.9630101 19.6173586,64 19.5072086,64" id="Fill-16" fill="#003041"></path>
                                </g>
                            </g>
                        </g>
                    </g>
                </g>
            </g>
        </g>
    </g>
</svg>