<?xml version="1.0" encoding="UTF-8"?>
<svg width="154px" height="154px" viewBox="0 0 154 154" version="1.1" xmlns="http://www.w3.org/2000/svg" xmlns:xlink="http://www.w3.org/1999/xlink">
    <!-- Generator: Sketch 47.1 (45422) - http://www.bohemiancoding.com/sketch -->
    <title>upload-icon</title>
    <desc>Created with Sketch.</desc>
    <defs>
        <polygon id="path-1" points="59.8268571 0.125127273 59.8268571 31.7142857 29.9135143 31.7142857 0.000171428571 31.7142857 0.000171428571 0.125127273"></polygon>
        <polygon id="path-3" points="0.150496049 0.237805714 26.2494337 0.237805714 26.2494337 14.5657166 0.150496049 14.5657166"></polygon>
    </defs>
    <g id="Page-1-Copy" stroke="none" stroke-width="1" fill="none" fill-rule="evenodd">
        <g id="04-Desktop" transform="translate(-174.000000, -243.000000)">
            <g id="Group" transform="translate(0.000000, 120.000000)">
                <g id="Group-7" transform="translate(118.000000, 125.000000)">
                    <g id="Group-5">
                        <g id="Group-2-Copy-3">
                            <g id="upload-icon" transform="translate(58.000000, 0.000000)">
                                <circle id="Oval" fill="#CAE4DB" cx="75" cy="75" r="65"></circle>
                                <circle id="Oval" stroke="#7D9E94" stroke-width="3" cx="75" cy="75" r="75"></circle>
                                <g id="Page-1" transform="translate(45.000000, 40.000000)">
                                    <g id="Group-3" transform="translate(0.000000, 36.000000)">
                                        <mask id="mask-2" fill="white">
                                            <use xlink:href="#path-1"></use>
                                        </mask>
                                        <g id="Clip-2"></g>
                                        <path d="M58.9698857,31.7142857 L0.857314286,31.7142857 C0.384171429,31.7142857 0.000171428571,31.3267948 0.000171428571,30.8493506 L0.000171428571,0.990062338 C0.000171428571,0.512618182 0.384171429,0.125127273 0.857314286,0.125127273 L18.4847429,0.125127273 C18.9578857,0.125127273 19.3418857,0.512618182 19.3418857,0.990062338 C19.3418857,1.46750649 18.9578857,1.8549974 18.4847429,1.8549974 L1.71445714,1.8549974 L1.71445714,29.9844156 L58.1127429,29.9844156 L58.1127429,1.8549974 L41.3418857,1.8549974 C40.8687429,1.8549974 40.4847429,1.46750649 40.4847429,0.990062338 C40.4847429,0.512618182 40.8687429,0.125127273 41.3418857,0.125127273 L58.9698857,0.125127273 C59.4430286,0.125127273 59.8270286,0.512618182 59.8270286,0.990062338 L59.8270286,30.8493506 C59.8270286,31.3267948 59.4430286,31.7142857 58.9698857,31.7142857" id="Fill-1" fill="#003041" mask="url(#mask-2)"></path>
                                    </g>
                                    <g id="Group-6" transform="translate(16.285714, 0.000000)">
                                        <mask id="mask-4" fill="white">
                                            <use xlink:href="#path-3"></use>
                                        </mask>
                                        <g id="Clip-5"></g>
                                        <path d="M25.4015508,14.5657166 C25.1844565,14.5657166 24.9673623,14.4806194 24.8017149,14.3098423 L13.2001769,2.348448 L1.59807356,14.3098423 C1.26734407,14.6508137 0.730262006,14.6508137 0.398967173,14.3098423 C0.0676723404,13.968288 0.0676723404,13.4145737 0.398967173,13.0730194 L12.600341,0.493796571 C12.9316359,0.152242286 13.4687179,0.152242286 13.8000128,0.493796571 L26.0013866,13.0730194 C26.3321161,13.4145737 26.3321161,13.968288 26.0013866,14.3098423 C25.8357392,14.4806194 25.618645,14.5657166 25.4015508,14.5657166" id="Fill-4" fill="#003041" mask="url(#mask-4)"></path>
                                    </g>
                                    <path d="M30,51.4285714 C29.5268571,51.4285714 29.1428571,51.0410686 29.1428571,50.5636097 L29.1428571,1.72210458 C29.1428571,1.24464571 29.5268571,0.857142857 30,0.857142857 C30.4731429,0.857142857 30.8571429,1.24464571 30.8571429,1.72210458 L30.8571429,50.5636097 C30.8571429,51.0410686 30.4731429,51.4285714 30,51.4285714" id="Fill-7" fill="#003041"></path>
                                </g>
                            </g>
                        </g>
                    </g>
                </g>
            </g>
        </g>
    </g>
</svg>