<?xml version="1.0" encoding="UTF-8"?>
<svg width="375px" height="279px" viewBox="0 0 375 279" version="1.1" xmlns="http://www.w3.org/2000/svg" xmlns:xlink="http://www.w3.org/1999/xlink">
    <!-- Generator: Sketch 47.1 (45422) - http://www.bohemiancoding.com/sketch -->
    <title>postcard-icon</title>
    <desc>Created with Sketch.</desc>
    <defs></defs>
    <g id="Page-1-Copy" stroke="none" stroke-width="1" fill="none" fill-rule="evenodd">
        <g id="03-Desktop" transform="translate(-215.000000, -255.000000)">
            <g id="Group-2" transform="translate(0.000000, 120.000000)">
                <g id="Group-5" transform="translate(184.000000, 134.000000)">
                    <g id="Group-2" transform="translate(0.000000, 1.000000)">
                        <g id="postcard-icon" transform="translate(32.000000, 0.000000)">
                            <path d="M31,243.167 L373.515,243.167 L373.515,1 L31,1 L31,243.167 Z M33,241.167 L371.515,241.167 L371.515,3 L33,3 L33,241.167 Z" id="Fill-1" fill="#7D9E94"></path>
                            <path d="M44.174259,228.912803 L361.341734,228.912803 L361.341734,13.2511938 L44.174259,13.2511938 L44.174259,228.912803 Z M42.168,230.876996 L363.347993,230.876996 L363.347993,11.287 L42.168,11.287 L42.168,230.876996 Z" id="Fill-2" fill="#DDDDDD"></path>
                            <path d="M292.032,80.602 L340.345,80.602 L340.345,32.288 L292.032,32.288 L292.032,80.602 Z M290.033,82.602 L342.346,82.602 L342.346,30.288 L290.033,30.288 L290.033,82.602 Z" id="Fill-3" fill="#DDDDDD"></path>
                            <polygon id="Fill-4" fill="#DDDDDD" points="194.725 200.281 196.725 200.281 196.725 71.601 194.725 71.601"></polygon>
                            <polygon id="Fill-5" fill="#DDDDDD" points="63.168 130.971 175.725 130.971 175.725 128.971 63.168 128.971"></polygon>
                            <polygon id="Fill-6" fill="#DDDDDD" points="63.168 167.738 175.725 167.738 175.725 165.738 63.168 165.738"></polygon>
                            <polygon id="Fill-7" fill="#DDDDDD" points="63.168 149.354 175.725 149.354 175.725 147.354 63.168 147.354"></polygon>
                            <g id="Group-7" transform="translate(31.000000, 260.000000)" stroke="#DBAF32" stroke-width="2" stroke-linecap="square">
                                <path d="M2.5,9.5 L340.5,9.5" id="Line-2"></path>
                                <path d="M341.5,0.5 L341.5,17.2630546" id="Line-4"></path>
                                <path d="M1.5,0.5 L1.5,17.2630546" id="Line-4-Copy"></path>
                            </g>
                            <g id="Group-6" stroke="#DBAF32" stroke-width="2" stroke-linecap="square">
                                <path d="M8.5,1.3968764 L8.5,241.722113" id="Line-3"></path>
                                <path d="M0.5,242.5 L16.6245155,242.5" id="Line-5"></path>
                                <path d="M0.5,1.5 L16.6245155,1.5" id="Line-5-Copy"></path>
                            </g>
                        </g>
                    </g>
                </g>
            </g>
        </g>
    </g>
</svg>