<svg width="750" height="500.00000000000006" xmlns="http://www.w3.org/2000/svg">

 <g>
  <title>background</title>
  <rect fill="none" id="canvas_background" height="502" width="752" y="-1" x="-1"/>
 </g>
 <g>
  <title>Layer 1</title>
  <path id="svg_2" fill="#4D4D4D" d="m730.558172,4.499082l-712.104,0c-8.402,0 -15.209,6.806 -15.209,15.208l0,449.591c0,8.402 6.807,15.209 15.209,15.209l712.104,0c8.395,0 15.209,-6.807 15.209,-15.209l0,-449.591c0,-8.402 -6.815,-15.208 -15.209,-15.208zm-15.209,449.591l-681.686,0l0,-419.174l681.686,0l0,419.174z"/>
  <path id="svg_3" fill="#4D4D4D" d="m374.502172,417.901082c8.402,0 15.208,-6.807 15.208,-15.209l0,-324.22c0,-8.386 -6.806,-15.209 -15.208,-15.209c-8.394,0 -15.209,6.823 -15.209,15.209l0,324.221c0,8.402 6.816,15.208 15.209,15.208z"/>
  <path id="svg_4" fill="#4D4D4D" d="m81.632172,105.579082l87.908,0c8.402,0 15.209,-6.807 15.209,-15.209c0,-8.385 -6.807,-15.209 -15.209,-15.209l-87.908,0c-8.394,0 -15.209,6.824 -15.209,15.209c0,8.403 6.815,15.209 15.209,15.209z"/>
  <path id="svg_5" fill="#4D4D4D" d="m81.632172,166.414082l140.069,0c8.402,0 15.209,-6.807 15.209,-15.209c0,-8.385 -6.807,-15.209 -15.209,-15.209l-140.069,0c-8.394,0 -15.209,6.824 -15.209,15.209c0,8.402 6.815,15.209 15.209,15.209z"/>
  <path id="svg_6" fill="#4D4D4D" d="m81.632172,227.249082l221.375,0c8.402,0 15.209,-6.807 15.209,-15.209c0,-8.385 -6.807,-15.209 -15.209,-15.209l-221.375,0c-8.394,0 -15.209,6.824 -15.209,15.209c0,8.402 6.815,15.209 15.209,15.209z"/>
  <path id="svg_7" fill="#4D4D4D" d="m81.632172,288.084082l221.375,0c8.402,0 15.209,-6.807 15.209,-15.209c0,-8.385 -6.807,-15.209 -15.209,-15.209l-221.375,0c-8.394,0 -15.209,6.824 -15.209,15.209c0,8.402 6.815,15.209 15.209,15.209z"/>
  <path id="svg_8" fill="#4D4D4D" d="m81.632172,348.919082l221.375,0c8.402,0 15.209,-6.807 15.209,-15.209c0,-8.385 -6.807,-15.209 -15.209,-15.209l-221.375,0c-8.394,0 -15.209,6.824 -15.209,15.209c0,8.402 6.815,15.209 15.209,15.209z"/>
  <path id="svg_9" fill="#4D4D4D" d="m304.110172,379.336082l-46.042,0c-8.394,0 -15.209,6.823 -15.209,15.209c0,8.401 6.815,15.208 15.209,15.208l46.042,0c8.394,0 15.209,-6.807 15.209,-15.208c0,-8.386 -6.815,-15.209 -15.209,-15.209z"/>
  <path id="svg_10" fill="#4D4D4D" d="m591.073172,198.648082l95.598,0c8.402,0 15.209,-6.807 15.209,-15.209l0,-112.979c0,-8.386 -6.807,-15.209 -15.209,-15.209l-95.598,0c-8.393,0 -15.209,6.823 -15.209,15.209l0,112.979c0,8.402 6.817,15.209 15.209,15.209zm15.209,-112.98l65.181,0l0,82.563l-65.181,0l0,-82.563z"/>
  <path id="svg_11" fill="#4D4D4D" d="m458.999172,122.824082c0.628,0.034 1.273,0.052 1.935,0.052c9.064,0 21.812,-2.903 34.433,-15.515c4.65,-4.651 11.618,-9.896 18.526,-8.521c4.854,0.985 9.506,5.364 11.849,11.136c3.156,7.791 12.025,11.525 19.809,8.368c7.791,-3.157 11.525,-12.035 8.367,-19.809c-6.263,-15.43 -18.968,-26.463 -33.99,-29.501c-9.098,-1.834 -27.15,-2.105 -46.067,16.821c-6.866,6.857 -11.788,6.704 -13.358,6.603c-7.613,-0.288 -15.133,-7.18 -17.406,-9.828c-5.381,-6.382 -14.921,-7.248 -21.354,-1.901c-6.468,5.381 -7.35,14.954 -1.979,21.422c1.671,2.002 16.948,19.655 39.235,20.673z"/>
  <path id="svg_12" fill="#4D4D4D" d="m462.750172,174.952082c11.033,0 22.423,-3.888 32.616,-14.071c4.65,-4.651 11.602,-9.896 18.526,-8.521c4.854,0.984 9.506,5.347 11.849,11.135c3.156,7.774 12.025,11.525 19.809,8.352c7.791,-3.157 11.525,-12.018 8.367,-19.809c-6.263,-15.413 -18.977,-26.445 -33.99,-29.484c-9.098,-1.85 -27.15,-2.088 -46.067,16.821c-12.62,12.646 -28.712,-1.392 -31.835,-4.379c-6.018,-5.806 -15.615,-5.67 -21.455,0.322c-5.864,6.026 -5.737,15.65 0.271,21.506c9.6,9.369 25.342,18.128 41.909,18.128z"/>
 </g>
</svg>